<svg height="511pt" viewBox="-94 0 511 511.99971" width="511pt" xmlns="http://www.w3.org/2000/svg"><path d="m11.558594 425.808594h141.945312c4.871094 0 9.164063-3.191406 10.570313-7.851563l77.789062-267.867187h-95.480469l-144.472656 259.304687c-4.097656 7.359375 1.222656 16.414063 9.648438 16.414063zm0 0" fill="#fa503c"/><path d="m205.75 442.015625c-11.914062-6.046875-16.667969-20.609375-10.621094-32.527344l36.335938-71.570312-63.203125-40.195313c-11.277344-7.167968-14.601563-22.121094-7.433594-33.398437 7.171875-11.273438 22.125-14.601563 33.398437-7.433594l81.738282 51.980469c10.511718 6.683594 14.226562 20.257812 8.589844 31.367187l-46.277344 91.15625c-6.058594 11.933594-20.628906 16.660157-32.527344 10.621094zm0 0" fill="#414b82"/><path d="m58.277344 509.328125c-11.890625-6.097656-16.585938-20.679687-10.488282-32.566406l98.597657-192.257813c6.097656-11.886718 20.675781-16.582031 32.566406-10.488281 11.890625 6.097656 16.585937 20.679687 10.488281 32.570313l-98.59375 192.253906c-6.113281 11.921875-20.707031 16.570312-32.570312 10.488281zm0 0" fill="#5f6e9b"/><g fill="#ffb69e"><path d="m229.789062 90.199219c0 22.394531-18.15625 40.550781-40.550781 40.550781s-40.546875-18.15625-40.546875-40.550781 18.152344-40.550781 40.546875-40.550781 40.550781 18.15625 40.550781 40.550781zm0 0"/><path d="m63.808594 201.042969-43.527344-57.058594c-6.753906-8.855469-5.050781-21.503906 3.804688-28.261719 8.851562-6.75 21.503906-5.050781 28.257812 3.804688l34.933594 45.792968 58.292968-18.410156c10.617188-3.351562 21.941407 2.539063 25.296876 13.15625 3.355468 10.617188-2.539063 21.945313-13.15625 25.296875l-71.800782 22.675781c-8.136718 2.570313-16.964844-.265624-22.101562-6.996093zm0 0"/><path d="m206.578125 188.082031c-9.628906-5.59375-12.902344-17.933593-7.308594-27.5625l87.40625-150.480469c5.59375-9.628906 17.933594-12.898437 27.5625-7.308593 9.628907 5.59375 12.898438 17.933593 7.308594 27.5625l-87.40625 150.480469c-5.605469 9.644531-17.949219 12.890624-27.5625 7.308593zm0 0"/></g><path d="m286.675781 10.039062-78.679687 135.453126-51.5625-.011719c-4.203125 0-8.378906.644531-12.386719 1.910156l-56.769531 17.929687-34.933594-45.796874-32.058594 24.460937 43.523438 57.054687c5.136718 6.734376 13.964844 9.570313 22.101562 7l45.167969-14.265624.078125 119.792968h60.261719c24.792969 0 44.898437-20.082031 44.921875-44.878906l.089844-91.859375 85.117187-146.539063zm0 0" fill="#64afff"/><path d="m207.742188 197.605469c0 13.191406-10.691407 23.886719-23.882813 23.886719s-23.882813-10.695313-23.882813-23.886719c0-13.191407 10.691407-23.882813 23.882813-23.882813s23.882813 10.691406 23.882813 23.882813zm0 0" fill="#fff"/></svg>